Normalized EMG Linear Envelopes
nRows=65
nColumns=17

endheader
time	        VM	        VL	        RF	       GRA	        TA	   ADDLONG	   SEMIMEM	      BFLH	        GM	        GL	       TFL	   GLUTMAX	   GLUTMED	      PIRI	    OBTINT	        QF	
1.6735	  0.013928	  0.000000	  0.001429	  0.166676	  0.096448	  0.029851	  0.657286	  0.431376	  0.222497	  0.043451	  0.024346	  0.181666	  0.170046	  0.404236	  0.914676	  0.336568	
1.674	  0.014392	  0.000000	  0.001454	  0.167141	  0.098218	  0.029921	  0.661009	  0.434493	  0.224924	  0.044134	  0.024353	  0.182428	  0.170432	  0.404133	  0.916405	  0.337188	
1.6745	  0.014868	  0.000000	  0.001479	  0.167605	  0.100016	  0.029992	  0.664687	  0.437594	  0.227346	  0.044822	  0.024354	  0.183203	  0.170819	  0.404056	  0.918230	  0.337803	
1.675	  0.015356	  0.000000	  0.001506	  0.168070	  0.101842	  0.030064	  0.668319	  0.440679	  0.229765	  0.045515	  0.024351	  0.183991	  0.171209	  0.404004	  0.920147	  0.338414	
1.6755	  0.015857	  0.000000	  0.001532	  0.168537	  0.103694	  0.030137	  0.671903	  0.443747	  0.232179	  0.046213	  0.024343	  0.184792	  0.171599	  0.403979	  0.922156	  0.339023	
1.676	  0.016370	  0.000000	  0.001560	  0.169006	  0.105573	  0.030211	  0.675440	  0.446799	  0.234588	  0.046915	  0.024329	  0.185606	  0.171991	  0.403981	  0.924255	  0.339631	
1.6765	  0.016896	  0.000000	  0.001588	  0.169477	  0.107480	  0.030286	  0.678928	  0.449834	  0.236993	  0.047621	  0.024310	  0.186434	  0.172383	  0.404011	  0.926441	  0.340239	
1.677	  0.017436	  0.000000	  0.001617	  0.169953	  0.109413	  0.030361	  0.682368	  0.452854	  0.239393	  0.048332	  0.024287	  0.187275	  0.172775	  0.404068	  0.928714	  0.340850	
1.6775	  0.017989	  0.000000	  0.001646	  0.170432	  0.111373	  0.030437	  0.685757	  0.455856	  0.241788	  0.049047	  0.024258	  0.188131	  0.173167	  0.404153	  0.931071	  0.341463	
1.678	  0.018555	  0.000000	  0.001676	  0.170916	  0.113360	  0.030514	  0.689095	  0.458843	  0.244179	  0.049765	  0.024224	  0.189001	  0.173558	  0.404267	  0.933509	  0.342080	
1.6785	  0.019136	  0.000000	  0.001707	  0.171406	  0.115373	  0.030592	  0.692382	  0.461813	  0.246565	  0.050487	  0.024186	  0.189886	  0.173948	  0.404410	  0.936028	  0.342704	
1.679	  0.019731	  0.000000	  0.001739	  0.171902	  0.117413	  0.030670	  0.695616	  0.464767	  0.248946	  0.051212	  0.024142	  0.190785	  0.174336	  0.404582	  0.938623	  0.343335	
1.6795	  0.020340	  0.000000	  0.001772	  0.172405	  0.119478	  0.030748	  0.698797	  0.467705	  0.251324	  0.051940	  0.024094	  0.191699	  0.174722	  0.404783	  0.941294	  0.343974	
1.68	  0.020965	  0.000000	  0.001806	  0.172916	  0.121570	  0.030826	  0.701922	  0.470629	  0.253697	  0.052671	  0.024041	  0.192627	  0.175106	  0.405013	  0.944036	  0.344624	
1.6805	  0.021604	  0.000000	  0.001840	  0.173435	  0.123688	  0.030905	  0.704991	  0.473539	  0.256067	  0.053404	  0.023984	  0.193571	  0.175486	  0.405273	  0.946849	  0.345285	
1.681	  0.022258	  0.000000	  0.001876	  0.173962	  0.125831	  0.030984	  0.708003	  0.476436	  0.258434	  0.054140	  0.023922	  0.194529	  0.175862	  0.405564	  0.949729	  0.345958	
1.6815	  0.022928	  0.000000	  0.001912	  0.174498	  0.128000	  0.031063	  0.710956	  0.479324	  0.260799	  0.054878	  0.023855	  0.195503	  0.176234	  0.405886	  0.952674	  0.346645	
1.682	  0.023614	  0.000000	  0.001950	  0.175045	  0.130194	  0.031142	  0.713849	  0.482202	  0.263161	  0.055617	  0.023784	  0.196491	  0.176602	  0.406241	  0.955681	  0.347346	
1.6825	  0.024317	  0.000000	  0.001988	  0.175601	  0.132413	  0.031220	  0.716680	  0.485073	  0.265522	  0.056358	  0.023709	  0.197495	  0.176966	  0.406628	  0.958748	  0.348064	
1.683	  0.025036	  0.000000	  0.002028	  0.176168	  0.134657	  0.031299	  0.719448	  0.487938	  0.267882	  0.057100	  0.023629	  0.198514	  0.177325	  0.407050	  0.961873	  0.348797	
1.6835	  0.025771	  0.000000	  0.002069	  0.176746	  0.136925	  0.031377	  0.722151	  0.490799	  0.270241	  0.057843	  0.023545	  0.199549	  0.177679	  0.407507	  0.965052	  0.349549	
1.684	  0.026524	  0.000000	  0.002111	  0.177336	  0.139217	  0.031455	  0.724789	  0.493658	  0.272601	  0.058586	  0.023457	  0.200600	  0.178029	  0.408002	  0.968284	  0.350319	
1.6845	  0.027294	  0.000000	  0.002154	  0.177938	  0.141534	  0.031533	  0.727359	  0.496516	  0.274962	  0.059330	  0.023365	  0.201666	  0.178374	  0.408535	  0.971566	  0.351107	
1.685	  0.028083	  0.000000	  0.002199	  0.178553	  0.143874	  0.031611	  0.729859	  0.499375	  0.277324	  0.060075	  0.023269	  0.202748	  0.178714	  0.409107	  0.974895	  0.351916	
1.6855	  0.028889	  0.000000	  0.002245	  0.179180	  0.146239	  0.031688	  0.732289	  0.502237	  0.279687	  0.060820	  0.023169	  0.203846	  0.179050	  0.409721	  0.978269	  0.352746	
1.686	  0.029714	  0.000000	  0.002292	  0.179821	  0.148626	  0.031765	  0.734646	  0.505104	  0.282053	  0.061564	  0.023066	  0.204960	  0.179382	  0.410379	  0.981685	  0.353597	
1.6865	  0.030559	  0.000000	  0.002340	  0.180475	  0.151036	  0.031842	  0.736929	  0.507977	  0.284421	  0.062308	  0.022959	  0.206089	  0.179709	  0.411081	  0.985139	  0.354471	
1.687	  0.031422	  0.000000	  0.002390	  0.181144	  0.153469	  0.031918	  0.739136	  0.510858	  0.286792	  0.063051	  0.022849	  0.207234	  0.180031	  0.411831	  0.988627	  0.355369	
1.6875	  0.032305	  0.000000	  0.002442	  0.181827	  0.155925	  0.031994	  0.741267	  0.513749	  0.289165	  0.063793	  0.022735	  0.208395	  0.180349	  0.412630	  0.992146	  0.356291	
1.688	  0.033209	  0.000000	  0.002495	  0.182524	  0.158402	  0.032069	  0.743322	  0.516650	  0.291542	  0.064534	  0.022619	  0.209571	  0.180662	  0.413479	  0.995692	  0.357240	
1.6885	  0.034133	  0.000000	  0.002550	  0.183236	  0.160902	  0.032144	  0.745301	  0.519563	  0.293922	  0.065274	  0.022499	  0.210762	  0.180970	  0.414380	  0.999260	  0.358216	
1.689	  0.035078	  0.000000	  0.002606	  0.183963	  0.163423	  0.032219	  0.747203	  0.522488	  0.296305	  0.066012	  0.022377	  0.211967	  0.181274	  0.415336	  1.002845	  0.359219	
1.6895	  0.036044	  0.000000	  0.002664	  0.184705	  0.165965	  0.032292	  0.749029	  0.525427	  0.298690	  0.066747	  0.022252	  0.213187	  0.181572	  0.416346	  1.006444	  0.360251	
1.69	  0.037032	  0.000000	  0.002724	  0.185462	  0.168528	  0.032366	  0.750779	  0.528381	  0.301079	  0.067480	  0.022126	  0.214421	  0.181865	  0.417413	  1.010049	  0.361313	
1.6905	  0.038042	  0.000138	  0.002786	  0.186235	  0.171112	  0.032438	  0.752453	  0.531349	  0.303469	  0.068211	  0.021996	  0.215669	  0.182153	  0.418538	  1.013656	  0.362405	
1.691	  0.039074	  0.000479	  0.002850	  0.187022	  0.173716	  0.032511	  0.754053	  0.534334	  0.305862	  0.068939	  0.021865	  0.216929	  0.182436	  0.419723	  1.017260	  0.363528	
1.6915	  0.040130	  0.000835	  0.002915	  0.187825	  0.176340	  0.032582	  0.755581	  0.537335	  0.308256	  0.069664	  0.021732	  0.218203	  0.182712	  0.420970	  1.020853	  0.364685	
1.692	  0.041209	  0.001204	  0.002983	  0.188643	  0.178984	  0.032653	  0.757039	  0.540353	  0.310652	  0.070386	  0.021598	  0.219488	  0.182983	  0.422278	  1.024429	  0.365875	
1.6925	  0.042312	  0.001587	  0.003052	  0.189477	  0.181647	  0.032724	  0.758430	  0.543388	  0.313048	  0.071105	  0.021462	  0.220785	  0.183247	  0.423651	  1.027983	  0.367100	
1.693	  0.043439	  0.001984	  0.003124	  0.190326	  0.184328	  0.032794	  0.759756	  0.546441	  0.315443	  0.071819	  0.021324	  0.222093	  0.183505	  0.425089	  1.031507	  0.368361	
1.6935	  0.044591	  0.002396	  0.003198	  0.191191	  0.187028	  0.032864	  0.761020	  0.549513	  0.317839	  0.072530	  0.021185	  0.223411	  0.183757	  0.426595	  1.034995	  0.369658	
1.694	  0.045768	  0.002823	  0.003274	  0.192072	  0.189746	  0.032933	  0.762225	  0.552603	  0.320233	  0.073237	  0.021045	  0.224741	  0.184003	  0.428168	  1.038439	  0.370994	
1.6945	  0.046971	  0.003265	  0.003353	  0.192969	  0.192480	  0.033002	  0.763372	  0.555712	  0.322625	  0.073939	  0.020905	  0.226080	  0.184242	  0.429811	  1.041833	  0.372367	
1.695	  0.048199	  0.003722	  0.003433	  0.193883	  0.195231	  0.033071	  0.764465	  0.558840	  0.325015	  0.074636	  0.020763	  0.227429	  0.184476	  0.431525	  1.045169	  0.373780	
1.6955	  0.049454	  0.004195	  0.003516	  0.194813	  0.197999	  0.033140	  0.765507	  0.561988	  0.327402	  0.075328	  0.020621	  0.228789	  0.184704	  0.433312	  1.048441	  0.375233	
1.696	  0.050737	  0.004684	  0.003602	  0.195759	  0.200781	  0.033209	  0.766500	  0.565154	  0.329785	  0.076015	  0.020479	  0.230158	  0.184927	  0.435171	  1.051641	  0.376726	
1.6965	  0.052046	  0.005189	  0.003690	  0.196722	  0.203579	  0.033277	  0.767447	  0.568339	  0.332163	  0.076696	  0.020336	  0.231537	  0.185145	  0.437106	  1.054762	  0.378260	
1.697	  0.053384	  0.005711	  0.003781	  0.197701	  0.206391	  0.033346	  0.768351	  0.571542	  0.334536	  0.077370	  0.020193	  0.232925	  0.185359	  0.439115	  1.057798	  0.379835	
1.6975	  0.054750	  0.006250	  0.003874	  0.198697	  0.209217	  0.033415	  0.769214	  0.574764	  0.336904	  0.078038	  0.020051	  0.234323	  0.185568	  0.441202	  1.060741	  0.381452	
1.698	  0.056144	  0.006806	  0.003970	  0.199709	  0.212056	  0.033484	  0.770039	  0.578003	  0.339266	  0.078699	  0.019908	  0.235731	  0.185774	  0.443365	  1.063586	  0.383112	
1.6985	  0.057568	  0.007379	  0.004068	  0.200738	  0.214910	  0.033553	  0.770829	  0.581259	  0.341621	  0.079352	  0.019766	  0.237148	  0.185976	  0.445607	  1.066325	  0.384816	
1.699	  0.059022	  0.007969	  0.004170	  0.201783	  0.217776	  0.033622	  0.771583	  0.584532	  0.343968	  0.079998	  0.019625	  0.238574	  0.186176	  0.447928	  1.068952	  0.386565	
1.6995	  0.060505	  0.008578	  0.004274	  0.202844	  0.220655	  0.033691	  0.772306	  0.587821	  0.346308	  0.080635	  0.019484	  0.240008	  0.186374	  0.450329	  1.071462	  0.388361	
1.7	  0.062019	  0.009205	  0.004381	  0.203920	  0.223547	  0.033761	  0.772997	  0.591124	  0.348640	  0.081263	  0.019344	  0.241452	  0.186570	  0.452812	  1.073848	  0.390203	
1.7005	  0.063564	  0.009850	  0.004491	  0.205012	  0.226450	  0.033830	  0.773659	  0.594442	  0.350963	  0.081882	  0.019205	  0.242903	  0.186766	  0.455378	  1.076104	  0.392094	
1.701	  0.065141	  0.010514	  0.004604	  0.206120	  0.229366	  0.033900	  0.774292	  0.597774	  0.353277	  0.082491	  0.019067	  0.244363	  0.186963	  0.458026	  1.078225	  0.394035	
1.7015	  0.066749	  0.011197	  0.004721	  0.207242	  0.232293	  0.033970	  0.774898	  0.601117	  0.355582	  0.083091	  0.018930	  0.245830	  0.187159	  0.460759	  1.080206	  0.396026	
1.702	  0.068389	  0.011900	  0.004840	  0.208379	  0.235231	  0.034041	  0.775478	  0.604471	  0.357877	  0.083679	  0.018794	  0.247305	  0.187357	  0.463576	  1.082040	  0.398068	
1.7025	  0.070061	  0.012622	  0.004962	  0.209531	  0.238181	  0.034111	  0.776034	  0.607834	  0.360163	  0.084257	  0.018660	  0.248787	  0.187557	  0.466479	  1.083723	  0.400163	
1.703	  0.071766	  0.013363	  0.005088	  0.210697	  0.241142	  0.034182	  0.776566	  0.611205	  0.362439	  0.084823	  0.018528	  0.250275	  0.187759	  0.469467	  1.085248	  0.402311	
1.7035	  0.073504	  0.014125	  0.005217	  0.211877	  0.244113	  0.034254	  0.777078	  0.614582	  0.364705	  0.085377	  0.018398	  0.251771	  0.187964	  0.472542	  1.086609	  0.404512	
1.704	  0.075275	  0.014908	  0.005349	  0.213070	  0.247096	  0.034326	  0.777568	  0.617963	  0.366960	  0.085919	  0.018269	  0.253273	  0.188172	  0.475704	  1.087800	  0.406768	
1.7045	  0.077080	  0.015710	  0.005484	  0.214277	  0.250088	  0.034399	  0.778040	  0.621346	  0.369205	  0.086448	  0.018142	  0.254781	  0.188383	  0.478952	  1.088815	  0.409080	
1.705	  0.078918	  0.016534	  0.005623	  0.215498	  0.253090	  0.034472	  0.778494	  0.624729	  0.371438	  0.086964	  0.018018	  0.256295	  0.188599	  0.482287	  1.089649	  0.411447	
1.7055	  0.080791	  0.017379	  0.005766	  0.216731	  0.256101	  0.034546	  0.778932	  0.628109	  0.373660	  0.087466	  0.017895	  0.257814	  0.188818	  0.485709	  1.090295	  0.413871	
